<?xml version="1.0" encoding="UTF-8" ?>
<svg version="1.1" width="64" height="64" xmlns="http://www.w3.org/2000/svg" shape-rendering="crispEdges">
<rect x="36" y="14" width="11" height="1" fill="#000000" />
<rect x="36" y="15" width="1" height="2" fill="#000000" />
<rect x="37" y="15" width="9" height="1" fill="#847E87" />
<rect x="46" y="15" width="1" height="2" fill="#000000" />
<rect x="37" y="16" width="2" height="1" fill="#000000" />
<rect x="39" y="16" width="1" height="1" fill="#C87566" />
<rect x="40" y="16" width="2" height="2" fill="#895A51" />
<rect x="42" y="16" width="1" height="3" fill="#77473E" />
<rect x="43" y="16" width="1" height="2" fill="#895A51" />
<rect x="44" y="16" width="2" height="1" fill="#000000" />
<rect x="38" y="17" width="1" height="8" fill="#000000" />
<rect x="39" y="17" width="1" height="1" fill="#9C493C" />
<rect x="44" y="17" width="1" height="10" fill="#000000" />
<rect x="39" y="18" width="1" height="3" fill="#C87566" />
<rect x="40" y="18" width="2" height="1" fill="#77473E" />
<rect x="43" y="18" width="1" height="1" fill="#77473E" />
<rect x="40" y="19" width="1" height="4" fill="#77473E" />
<rect x="41" y="19" width="3" height="3" fill="#895A51" />
<rect x="12" y="20" width="24" height="1" fill="#000000" />
<rect x="36" y="20" width="1" height="1" fill="#1F1F1F" />
<rect x="37" y="20" width="1" height="1" fill="#000000" />
<rect x="45" y="20" width="5" height="1" fill="#000000" />
<rect x="11" y="21" width="1" height="1" fill="#000000" />
<rect x="12" y="21" width="2" height="1" fill="#1F1F1F" />
<rect x="14" y="21" width="1" height="1" fill="#000000" />
<rect x="15" y="21" width="8" height="1" fill="#494949" />
<rect x="23" y="21" width="1" height="1" fill="#1F1F1F" />
<rect x="24" y="21" width="13" height="1" fill="#494949" />
<rect x="37" y="21" width="1" height="1" fill="#1F1F1F" />
<rect x="39" y="21" width="1" height="1" fill="#9C493C" />
<rect x="45" y="21" width="5" height="2" fill="#494949" />
<rect x="50" y="21" width="1" height="1" fill="#000000" />
<rect x="10" y="22" width="1" height="1" fill="#000000" />
<rect x="11" y="22" width="1" height="1" fill="#3A3A3A" />
<rect x="12" y="22" width="1" height="2" fill="#494949" />
<rect x="13" y="22" width="2" height="1" fill="#1F1F1F" />
<rect x="15" y="22" width="1" height="1" fill="#000000" />
<rect x="16" y="22" width="8" height="1" fill="#494949" />
<rect x="24" y="22" width="1" height="1" fill="#1F1F1F" />
<rect x="25" y="22" width="13" height="1" fill="#494949" />
<rect x="39" y="22" width="1" height="3" fill="#C87566" />
<rect x="41" y="22" width="3" height="1" fill="#77473E" />
<rect x="50" y="22" width="1" height="1" fill="#494949" />
<rect x="51" y="22" width="1" height="1" fill="#000000" />
<rect x="9" y="23" width="1" height="1" fill="#000000" />
<rect x="10" y="23" width="1" height="1" fill="#3A3A3A" />
<rect x="11" y="23" width="1" height="2" fill="#494949" />
<rect x="13" y="23" width="1" height="1" fill="#494949" />
<rect x="14" y="23" width="2" height="1" fill="#1F1F1F" />
<rect x="16" y="23" width="1" height="1" fill="#000000" />
<rect x="17" y="23" width="8" height="1" fill="#494949" />
<rect x="25" y="23" width="1" height="2" fill="#1F1F1F" />
<rect x="26" y="23" width="9" height="1" fill="#494949" />
<rect x="35" y="23" width="3" height="1" fill="#1F1F1F" />
<rect x="40" y="23" width="2" height="3" fill="#895A51" />
<rect x="42" y="23" width="1" height="3" fill="#77473E" />
<rect x="43" y="23" width="1" height="3" fill="#895A51" />
<rect x="45" y="23" width="7" height="1" fill="#1F1F1F" />
<rect x="52" y="23" width="1" height="1" fill="#000000" />
<rect x="8" y="24" width="1" height="1" fill="#000000" />
<rect x="9" y="24" width="1" height="1" fill="#3A3A3A" />
<rect x="10" y="24" width="1" height="2" fill="#494949" />
<rect x="12" y="24" width="2" height="1" fill="#000000" />
<rect x="14" y="24" width="1" height="1" fill="#494949" />
<rect x="15" y="24" width="10" height="1" fill="#1F1F1F" />
<rect x="26" y="24" width="10" height="1" fill="#1F1F1F" />
<rect x="36" y="24" width="2" height="1" fill="#494949" />
<rect x="45" y="24" width="5" height="4" fill="#494949" />
<rect x="50" y="24" width="1" height="1" fill="#1F1F1F" />
<rect x="51" y="24" width="2" height="1" fill="#494949" />
<rect x="53" y="24" width="1" height="1" fill="#000000" />
<rect x="7" y="25" width="1" height="1" fill="#000000" />
<rect x="8" y="25" width="1" height="1" fill="#3A3A3A" />
<rect x="9" y="25" width="1" height="2" fill="#494949" />
<rect x="11" y="25" width="1" height="1" fill="#000000" />
<rect x="12" y="25" width="1" height="3" fill="#9C5347" />
<rect x="13" y="25" width="1" height="2" fill="#C87566" />
<rect x="14" y="25" width="1" height="1" fill="#000000" />
<rect x="15" y="25" width="1" height="1" fill="#494949" />
<rect x="16" y="25" width="2" height="1" fill="#1F1F1F" />
<rect x="18" y="25" width="1" height="1" fill="#000000" />
<rect x="19" y="25" width="17" height="1" fill="#494949" />
<rect x="36" y="25" width="1" height="1" fill="#1F1F1F" />
<rect x="37" y="25" width="2" height="1" fill="#494949" />
<rect x="39" y="25" width="1" height="1" fill="#000000" />
<rect x="50" y="25" width="1" height="3" fill="#494949" />
<rect x="51" y="25" width="1" height="2" fill="#1F1F1F" />
<rect x="52" y="25" width="2" height="2" fill="#494949" />
<rect x="54" y="25" width="1" height="1" fill="#000000" />
<rect x="6" y="26" width="1" height="1" fill="#000000" />
<rect x="7" y="26" width="1" height="1" fill="#3A3A3A" />
<rect x="8" y="26" width="1" height="2" fill="#494949" />
<rect x="10" y="26" width="1" height="1" fill="#000000" />
<rect x="11" y="26" width="1" height="1" fill="#C87566" />
<rect x="14" y="26" width="1" height="1" fill="#C87566" />
<rect x="15" y="26" width="1" height="1" fill="#000000" />
<rect x="16" y="26" width="1" height="1" fill="#494949" />
<rect x="17" y="26" width="2" height="1" fill="#1F1F1F" />
<rect x="19" y="26" width="1" height="1" fill="#000000" />
<rect x="20" y="26" width="17" height="1" fill="#494949" />
<rect x="37" y="26" width="1" height="2" fill="#1F1F1F" />
<rect x="38" y="26" width="2" height="2" fill="#494949" />
<rect x="40" y="26" width="4" height="1" fill="#000000" />
<rect x="54" y="26" width="1" height="2" fill="#494949" />
<rect x="55" y="26" width="1" height="1" fill="#000000" />
<rect x="5" y="27" width="1" height="1" fill="#000000" />
<rect x="6" y="27" width="1" height="1" fill="#3A3A3A" />
<rect x="7" y="27" width="1" height="2" fill="#494949" />
<rect x="9" y="27" width="1" height="1" fill="#000000" />
<rect x="10" y="27" width="2" height="1" fill="#9C5347" />
<rect x="13" y="27" width="3" height="1" fill="#9C5347" />
<rect x="16" y="27" width="1" height="1" fill="#000000" />
<rect x="17" y="27" width="1" height="1" fill="#494949" />
<rect x="18" y="27" width="2" height="1" fill="#1F1F1F" />
<rect x="20" y="27" width="1" height="1" fill="#000000" />
<rect x="21" y="27" width="16" height="1" fill="#494949" />
<rect x="40" y="27" width="5" height="1" fill="#494949" />
<rect x="51" y="27" width="1" height="1" fill="#494949" />
<rect x="52" y="27" width="1" height="2" fill="#1F1F1F" />
<rect x="53" y="27" width="1" height="1" fill="#494949" />
<rect x="55" y="27" width="1" height="1" fill="#494949" />
<rect x="56" y="27" width="1" height="1" fill="#000000" />
<rect x="4" y="28" width="1" height="1" fill="#000000" />
<rect x="5" y="28" width="1" height="1" fill="#3A3A3A" />
<rect x="6" y="28" width="1" height="2" fill="#494949" />
<rect x="8" y="28" width="1" height="1" fill="#000000" />
<rect x="9" y="28" width="1" height="3" fill="#9C5347" />
<rect x="10" y="28" width="5" height="2" fill="#C87566" />
<rect x="15" y="28" width="1" height="3" fill="#9C5347" />
<rect x="16" y="28" width="1" height="2" fill="#C87566" />
<rect x="17" y="28" width="1" height="1" fill="#000000" />
<rect x="18" y="28" width="1" height="1" fill="#494949" />
<rect x="19" y="28" width="2" height="1" fill="#1F1F1F" />
<rect x="21" y="28" width="1" height="1" fill="#000000" />
<rect x="22" y="28" width="16" height="1" fill="#494949" />
<rect x="38" y="28" width="1" height="2" fill="#1F1F1F" />
<rect x="39" y="28" width="1" height="1" fill="#494949" />
<rect x="40" y="28" width="12" height="1" fill="#1F1F1F" />
<rect x="53" y="28" width="4" height="1" fill="#1F1F1F" />
<rect x="57" y="28" width="1" height="1" fill="#000000" />
<rect x="3" y="29" width="1" height="1" fill="#000000" />
<rect x="4" y="29" width="1" height="1" fill="#3A3A3A" />
<rect x="5" y="29" width="1" height="2" fill="#494949" />
<rect x="7" y="29" width="1" height="1" fill="#000000" />
<rect x="8" y="29" width="1" height="1" fill="#C87566" />
<rect x="17" y="29" width="1" height="1" fill="#C87566" />
<rect x="18" y="29" width="1" height="1" fill="#000000" />
<rect x="19" y="29" width="1" height="1" fill="#494949" />
<rect x="20" y="29" width="2" height="1" fill="#1F1F1F" />
<rect x="22" y="29" width="1" height="1" fill="#000000" />
<rect x="23" y="29" width="15" height="1" fill="#1F1F1F" />
<rect x="39" y="29" width="1" height="1" fill="#1F1F1F" />
<rect x="40" y="29" width="6" height="1" fill="#494949" />
<rect x="46" y="29" width="1" height="2" fill="#1F1F1F" />
<rect x="47" y="29" width="11" height="1" fill="#494949" />
<rect x="58" y="29" width="1" height="1" fill="#000000" />
<rect x="2" y="30" width="1" height="1" fill="#000000" />
<rect x="3" y="30" width="1" height="1" fill="#3A3A3A" />
<rect x="4" y="30" width="1" height="2" fill="#494949" />
<rect x="6" y="30" width="1" height="1" fill="#000000" />
<rect x="7" y="30" width="2" height="1" fill="#9C5347" />
<rect x="10" y="30" width="5" height="1" fill="#9C5347" />
<rect x="16" y="30" width="3" height="1" fill="#9C5347" />
<rect x="19" y="30" width="1" height="1" fill="#000000" />
<rect x="20" y="30" width="1" height="1" fill="#494949" />
<rect x="21" y="30" width="2" height="1" fill="#1F1F1F" />
<rect x="23" y="30" width="1" height="1" fill="#000000" />
<rect x="24" y="30" width="9" height="1" fill="#494949" />
<rect x="33" y="30" width="1" height="1" fill="#1F1F1F" />
<rect x="34" y="30" width="10" height="1" fill="#494949" />
<rect x="44" y="30" width="2" height="5" fill="#4B2D28" />
<rect x="47" y="30" width="6" height="1" fill="#494949" />
<rect x="53" y="30" width="2" height="5" fill="#4B2D28" />
<rect x="55" y="30" width="4" height="3" fill="#494949" />
<rect x="59" y="30" width="1" height="1" fill="#000000" />
<rect x="1" y="31" width="1" height="1" fill="#000000" />
<rect x="2" y="31" width="1" height="1" fill="#3A3A3A" />
<rect x="3" y="31" width="1" height="2" fill="#494949" />
<rect x="5" y="31" width="1" height="1" fill="#000000" />
<rect x="6" y="31" width="1" height="3" fill="#9C5347" />
<rect x="7" y="31" width="5" height="2" fill="#C87566" />
<rect x="12" y="31" width="1" height="2" fill="#9C5347" />
<rect x="13" y="31" width="5" height="2" fill="#C87566" />
<rect x="18" y="31" width="1" height="3" fill="#9C5347" />
<rect x="19" y="31" width="1" height="2" fill="#C87566" />
<rect x="20" y="31" width="1" height="1" fill="#000000" />
<rect x="21" y="31" width="1" height="1" fill="#494949" />
<rect x="22" y="31" width="2" height="2" fill="#1F1F1F" />
<rect x="24" y="31" width="1" height="1" fill="#000000" />
<rect x="25" y="31" width="9" height="1" fill="#494949" />
<rect x="34" y="31" width="1" height="2" fill="#1F1F1F" />
<rect x="35" y="31" width="9" height="1" fill="#494949" />
<rect x="46" y="31" width="1" height="2" fill="#494949" />
<rect x="47" y="31" width="1" height="2" fill="#1F1F1F" />
<rect x="48" y="31" width="5" height="1" fill="#494949" />
<rect x="59" y="31" width="1" height="2" fill="#494949" />
<rect x="60" y="31" width="1" height="1" fill="#000000" />
<rect x="0" y="32" width="1" height="2" fill="#000000" />
<rect x="1" y="32" width="1" height="1" fill="#3A3A3A" />
<rect x="2" y="32" width="1" height="2" fill="#494949" />
<rect x="4" y="32" width="1" height="32" fill="#000000" />
<rect x="5" y="32" width="1" height="1" fill="#C87566" />
<rect x="20" y="32" width="1" height="1" fill="#C87566" />
<rect x="21" y="32" width="1" height="1" fill="#000000" />
<rect x="24" y="32" width="1" height="1" fill="#1F1F1F" />
<rect x="25" y="32" width="1" height="32" fill="#000000" />
<rect x="26" y="32" width="8" height="1" fill="#494949" />
<rect x="35" y="32" width="7" height="1" fill="#494949" />
<rect x="42" y="32" width="2" height="1" fill="#443B39" />
<rect x="48" y="32" width="3" height="1" fill="#494949" />
<rect x="51" y="32" width="2" height="1" fill="#443B39" />
<rect x="60" y="32" width="1" height="1" fill="#494949" />
<rect x="61" y="32" width="1" height="2" fill="#000000" />
<rect x="1" y="33" width="1" height="1" fill="#000000" />
<rect x="3" y="33" width="1" height="1" fill="#000000" />
<rect x="5" y="33" width="1" height="1" fill="#9C5347" />
<rect x="7" y="33" width="5" height="1" fill="#9C5347" />
<rect x="12" y="33" width="4" height="1" fill="#000000" />
<rect x="16" y="33" width="2" height="1" fill="#9C5347" />
<rect x="19" y="33" width="3" height="1" fill="#9C5347" />
<rect x="22" y="33" width="3" height="1" fill="#000000" />
<rect x="26" y="33" width="9" height="1" fill="#000000" />
<rect x="35" y="33" width="1" height="1" fill="#1F1F1F" />
<rect x="36" y="33" width="6" height="1" fill="#000000" />
<rect x="42" y="33" width="1" height="1" fill="#180F0E" />
<rect x="43" y="33" width="1" height="2" fill="#4B2D28" />
<rect x="46" y="33" width="4" height="1" fill="#4B2D28" />
<rect x="50" y="33" width="3" height="1" fill="#4B2F2A" />
<rect x="55" y="33" width="1" height="1" fill="#4B2D28" />
<rect x="56" y="33" width="5" height="1" fill="#000000" />
<rect x="2" y="34" width="1" height="1" fill="#000000" />
<rect x="5" y="34" width="4" height="2" fill="#C87566" />
<rect x="9" y="34" width="1" height="2" fill="#9C5347" />
<rect x="10" y="34" width="1" height="1" fill="#C87566" />
<rect x="11" y="34" width="1" height="1" fill="#000000" />
<rect x="13" y="34" width="1" height="9" fill="#000000" opacity="0.568627" />
<rect x="16" y="34" width="1" height="1" fill="#000000" />
<rect x="17" y="34" width="4" height="1" fill="#C87566" />
<rect x="21" y="34" width="1" height="3" fill="#9C5347" />
<rect x="22" y="34" width="3" height="2" fill="#C87566" />
<rect x="26" y="34" width="2" height="2" fill="#895A51" />
<rect x="28" y="34" width="1" height="3" fill="#774B44" />
<rect x="29" y="34" width="5" height="2" fill="#895A51" />
<rect x="34" y="34" width="1" height="3" fill="#774B44" />
<rect x="35" y="34" width="5" height="2" fill="#895A51" />
<rect x="40" y="34" width="1" height="3" fill="#774B44" />
<rect x="41" y="34" width="2" height="2" fill="#6A453F" />
<rect x="46" y="34" width="1" height="1" fill="#4B2D28" />
<rect x="47" y="34" width="2" height="1" fill="#432924" />
<rect x="49" y="34" width="4" height="1" fill="#4B2D28" />
<rect x="55" y="34" width="1" height="5" fill="#4B2F2A" />
<rect x="56" y="34" width="1" height="3" fill="#000000" />
<rect x="10" y="35" width="1" height="1" fill="#000000" />
<rect x="17" y="35" width="1" height="1" fill="#000000" />
<rect x="18" y="35" width="3" height="1" fill="#C87566" />
<rect x="43" y="35" width="2" height="1" fill="#6A453F" />
<rect x="45" y="35" width="1" height="5" fill="#4B2D28" />
<rect x="46" y="35" width="1" height="4" fill="#432924" />
<rect x="47" y="35" width="5" height="1" fill="#6A453F" />
<rect x="52" y="35" width="1" height="2" fill="#603D37" />
<rect x="53" y="35" width="1" height="1" fill="#6A453F" />
<rect x="54" y="35" width="1" height="5" fill="#4B2D28" />
<rect x="5" y="36" width="4" height="1" fill="#9C5347" />
<rect x="9" y="36" width="1" height="5" fill="#000000" />
<rect x="18" y="36" width="1" height="5" fill="#000000" />
<rect x="19" y="36" width="2" height="1" fill="#9C5347" />
<rect x="22" y="36" width="3" height="1" fill="#9C5347" />
<rect x="26" y="36" width="2" height="1" fill="#774B44" />
<rect x="29" y="36" width="5" height="1" fill="#774B44" />
<rect x="35" y="36" width="5" height="1" fill="#774B44" />
<rect x="41" y="36" width="2" height="1" fill="#774B44" />
<rect x="43" y="36" width="2" height="1" fill="#603D37" />
<rect x="47" y="36" width="5" height="1" fill="#774B44" />
<rect x="53" y="36" width="1" height="1" fill="#603D37" />
<rect x="5" y="37" width="1" height="2" fill="#C87566" />
<rect x="6" y="37" width="1" height="3" fill="#9C5347" />
<rect x="7" y="37" width="2" height="2" fill="#C87566" />
<rect x="19" y="37" width="5" height="2" fill="#C87566" />
<rect x="24" y="37" width="1" height="3" fill="#9C5347" />
<rect x="26" y="37" width="5" height="2" fill="#895A51" />
<rect x="31" y="37" width="1" height="3" fill="#774B44" />
<rect x="32" y="37" width="5" height="2" fill="#895A51" />
<rect x="37" y="37" width="1" height="3" fill="#774B44" />
<rect x="38" y="37" width="5" height="2" fill="#895A51" />
<rect x="43" y="37" width="1" height="3" fill="#603D37" />
<rect x="44" y="37" width="1" height="2" fill="#6A453F" />
<rect x="47" y="37" width="2" height="2" fill="#895A51" />
<rect x="49" y="37" width="1" height="2" fill="#774B44" />
<rect x="50" y="37" width="2" height="1" fill="#895A51" />
<rect x="52" y="37" width="2" height="1" fill="#6A453F" />
<rect x="56" y="37" width="2" height="2" fill="#4B2D28" />
<rect x="10" y="38" width="3" height="1" fill="#000000" opacity="0.568627" />
<rect x="14" y="38" width="4" height="1" fill="#000000" opacity="0.568627" />
<rect x="50" y="38" width="1" height="2" fill="#4B2D28" />
<rect x="51" y="38" width="3" height="1" fill="#4B2F2A" />
<rect x="5" y="39" width="1" height="1" fill="#9C5347" />
<rect x="7" y="39" width="2" height="1" fill="#9C5347" />
<rect x="19" y="39" width="5" height="1" fill="#9C5347" />
<rect x="26" y="39" width="5" height="1" fill="#774B44" />
<rect x="32" y="39" width="5" height="1" fill="#774B44" />
<rect x="38" y="39" width="5" height="1" fill="#774B44" />
<rect x="44" y="39" width="1" height="1" fill="#603D37" />
<rect x="46" y="39" width="4" height="1" fill="#4B2D28" />
<rect x="51" y="39" width="2" height="1" fill="#432924" />
<rect x="53" y="39" width="1" height="1" fill="#4B2D28" />
<rect x="55" y="39" width="1" height="6" fill="#4B2D28" />
<rect x="56" y="39" width="1" height="6" fill="#4B2F2A" />
<rect x="5" y="40" width="4" height="2" fill="#C87566" />
<rect x="19" y="40" width="2" height="2" fill="#C87566" />
<rect x="21" y="40" width="1" height="3" fill="#9C5347" />
<rect x="22" y="40" width="3" height="2" fill="#C87566" />
<rect x="26" y="40" width="2" height="2" fill="#895A51" />
<rect x="28" y="40" width="1" height="3" fill="#774B44" />
<rect x="29" y="40" width="5" height="2" fill="#895A51" />
<rect x="34" y="40" width="1" height="3" fill="#774B44" />
<rect x="35" y="40" width="5" height="2" fill="#895A51" />
<rect x="40" y="40" width="1" height="3" fill="#774B44" />
<rect x="41" y="40" width="2" height="2" fill="#895A51" />
<rect x="43" y="40" width="3" height="1" fill="#6A453F" />
<rect x="46" y="40" width="2" height="1" fill="#4B2D28" />
<rect x="48" y="40" width="3" height="1" fill="#432924" />
<rect x="51" y="40" width="1" height="1" fill="#6A453F" />
<rect x="52" y="40" width="1" height="1" fill="#603D37" />
<rect x="53" y="40" width="2" height="2" fill="#6A453F" />
<rect x="9" y="41" width="1" height="2" fill="#9C5347" />
<rect x="10" y="41" width="1" height="1" fill="#000000" />
<rect x="17" y="41" width="1" height="1" fill="#000000" />
<rect x="18" y="41" width="1" height="1" fill="#C87566" />
<rect x="43" y="41" width="1" height="1" fill="#895A51" />
<rect x="44" y="41" width="2" height="1" fill="#6A453F" />
<rect x="46" y="41" width="1" height="4" fill="#432924" />
<rect x="47" y="41" width="1" height="4" fill="#4B2D28" />
<rect x="48" y="41" width="1" height="1" fill="#6A453F" />
<rect x="49" y="41" width="3" height="1" fill="#895A51" />
<rect x="52" y="41" width="1" height="2" fill="#774B44" />
<rect x="5" y="42" width="4" height="1" fill="#9C5347" />
<rect x="10" y="42" width="1" height="1" fill="#9C5347" />
<rect x="11" y="42" width="1" height="1" fill="#000000" />
<rect x="16" y="42" width="1" height="1" fill="#000000" />
<rect x="17" y="42" width="4" height="1" fill="#9C5347" />
<rect x="22" y="42" width="3" height="1" fill="#9C5347" />
<rect x="26" y="42" width="2" height="1" fill="#774B44" />
<rect x="29" y="42" width="5" height="1" fill="#774B44" />
<rect x="35" y="42" width="5" height="1" fill="#774B44" />
<rect x="41" y="42" width="3" height="1" fill="#774B44" />
<rect x="44" y="42" width="2" height="1" fill="#603D37" />
<rect x="48" y="42" width="4" height="1" fill="#774B44" />
<rect x="53" y="42" width="2" height="1" fill="#603D37" />
<rect x="5" y="43" width="1" height="2" fill="#C87566" />
<rect x="6" y="43" width="1" height="3" fill="#9C5347" />
<rect x="7" y="43" width="5" height="2" fill="#C87566" />
<rect x="12" y="43" width="4" height="1" fill="#000000" />
<rect x="16" y="43" width="2" height="2" fill="#C87566" />
<rect x="18" y="43" width="1" height="3" fill="#9C5347" />
<rect x="19" y="43" width="5" height="2" fill="#C87566" />
<rect x="24" y="43" width="1" height="3" fill="#9C5347" />
<rect x="26" y="43" width="5" height="1" fill="#895A51" />
<rect x="31" y="43" width="1" height="1" fill="#774B44" />
<rect x="32" y="43" width="5" height="1" fill="#895A51" />
<rect x="37" y="43" width="1" height="1" fill="#774B44" />
<rect x="38" y="43" width="5" height="1" fill="#895A51" />
<rect x="43" y="43" width="1" height="1" fill="#774B44" />
<rect x="44" y="43" width="2" height="1" fill="#6A453F" />
<rect x="48" y="43" width="1" height="2" fill="#895A51" />
<rect x="49" y="43" width="1" height="3" fill="#774B44" />
<rect x="50" y="43" width="3" height="2" fill="#895A51" />
<rect x="53" y="43" width="2" height="2" fill="#6A453F" />
<rect x="12" y="44" width="1" height="2" fill="#9C5347" />
<rect x="13" y="44" width="3" height="1" fill="#C87566" />
<rect x="26" y="44" width="4" height="1" fill="#895A51" />
<rect x="30" y="44" width="14" height="1" fill="#000000" />
<rect x="44" y="44" width="2" height="1" fill="#180F0E" />
<rect x="57" y="44" width="1" height="10" fill="#4B2D28" />
<rect x="5" y="45" width="1" height="1" fill="#9C5347" />
<rect x="7" y="45" width="5" height="1" fill="#9C5347" />
<rect x="13" y="45" width="5" height="1" fill="#9C5347" />
<rect x="19" y="45" width="5" height="1" fill="#9C5347" />
<rect x="26" y="45" width="4" height="1" fill="#774B44" />
<rect x="30" y="45" width="1" height="12" fill="#000000" />
<rect x="39" y="45" width="1" height="11" fill="#000000" opacity="0.568627" />
<rect x="44" y="45" width="2" height="2" fill="#3C2622" opacity="0.411765" />
<rect x="46" y="45" width="1" height="1" fill="#4B2D28" />
<rect x="47" y="45" width="1" height="8" fill="#432924" />
<rect x="48" y="45" width="1" height="8" fill="#4B2D28" />
<rect x="50" y="45" width="3" height="1" fill="#774B44" />
<rect x="53" y="45" width="3" height="1" fill="#603D37" />
<rect x="56" y="45" width="1" height="6" fill="#4B2D28" />
<rect x="5" y="46" width="4" height="2" fill="#C87566" />
<rect x="9" y="46" width="1" height="3" fill="#9C5347" />
<rect x="10" y="46" width="5" height="2" fill="#C87566" />
<rect x="15" y="46" width="1" height="3" fill="#9C5347" />
<rect x="16" y="46" width="5" height="2" fill="#C87566" />
<rect x="21" y="46" width="1" height="3" fill="#9C5347" />
<rect x="22" y="46" width="3" height="2" fill="#C87566" />
<rect x="26" y="46" width="2" height="2" fill="#895A51" />
<rect x="28" y="46" width="1" height="3" fill="#774B44" />
<rect x="29" y="46" width="1" height="2" fill="#895A51" />
<rect x="46" y="46" width="1" height="4" fill="#3C2622" opacity="0.411765" />
<rect x="49" y="46" width="4" height="1" fill="#4B2D28" />
<rect x="53" y="46" width="2" height="1" fill="#4B2F2A" />
<rect x="55" y="46" width="1" height="2" fill="#4B2D28" />
<rect x="58" y="46" width="1" height="2" fill="#4B2D28" />
<rect x="45" y="47" width="1" height="3" fill="#3C2622" opacity="0.411765" />
<rect x="49" y="47" width="2" height="1" fill="#402823" />
<rect x="51" y="47" width="4" height="1" fill="#432924" />
<rect x="5" y="48" width="4" height="1" fill="#9C5347" />
<rect x="10" y="48" width="5" height="1" fill="#9C5347" />
<rect x="16" y="48" width="5" height="1" fill="#9C5347" />
<rect x="22" y="48" width="3" height="1" fill="#9C5347" />
<rect x="26" y="48" width="2" height="1" fill="#774B44" />
<rect x="29" y="48" width="1" height="1" fill="#774B44" />
<rect x="49" y="48" width="7" height="1" fill="#603D37" />
<rect x="5" y="49" width="1" height="2" fill="#C87566" />
<rect x="6" y="49" width="1" height="3" fill="#9C5347" />
<rect x="7" y="49" width="5" height="2" fill="#C87566" />
<rect x="12" y="49" width="1" height="3" fill="#9C5347" />
<rect x="13" y="49" width="3" height="2" fill="#C87566" />
<rect x="16" y="49" width="8" height="1" fill="#000000" />
<rect x="24" y="49" width="1" height="3" fill="#9C5347" />
<rect x="26" y="49" width="4" height="2" fill="#895A51" />
<rect x="49" y="49" width="1" height="2" fill="#774B44" />
<rect x="50" y="49" width="4" height="2" fill="#895A51" />
<rect x="54" y="49" width="1" height="2" fill="#6A453F" />
<rect x="55" y="49" width="1" height="3" fill="#603D37" />
<rect x="16" y="50" width="1" height="8" fill="#000000" />
<rect x="19" y="50" width="1" height="7" fill="#000000" opacity="0.568627" />
<rect x="23" y="50" width="1" height="8" fill="#000000" />
<rect x="31" y="50" width="8" height="1" fill="#000000" opacity="0.568627" />
<rect x="40" y="50" width="5" height="1" fill="#000000" opacity="0.568627" />
<rect x="45" y="50" width="2" height="1" fill="#211512" opacity="0.745098" />
<rect x="58" y="50" width="1" height="1" fill="#4B2D28" />
<rect x="5" y="51" width="1" height="1" fill="#9C5347" />
<rect x="7" y="51" width="5" height="1" fill="#9C5347" />
<rect x="13" y="51" width="3" height="1" fill="#9C5347" />
<rect x="26" y="51" width="4" height="1" fill="#774B44" />
<rect x="45" y="51" width="1" height="3" fill="#3C2622" opacity="0.411765" />
<rect x="46" y="51" width="1" height="2" fill="#4B2D28" />
<rect x="49" y="51" width="1" height="8" fill="#4B2D28" />
<rect x="50" y="51" width="4" height="1" fill="#774B44" />
<rect x="54" y="51" width="1" height="1" fill="#603D37" />
<rect x="56" y="51" width="1" height="2" fill="#180F0E" />
<rect x="58" y="51" width="1" height="4" fill="#4B2F2A" />
<rect x="5" y="52" width="3" height="2" fill="#C87566" />
<rect x="8" y="52" width="6" height="1" fill="#000000" />
<rect x="14" y="52" width="2" height="2" fill="#C87566" />
<rect x="24" y="52" width="1" height="2" fill="#C87566" />
<rect x="26" y="52" width="2" height="2" fill="#895A51" />
<rect x="28" y="52" width="1" height="3" fill="#774B44" />
<rect x="29" y="52" width="1" height="2" fill="#895A51" />
<rect x="44" y="52" width="1" height="2" fill="#3C2622" opacity="0.411765" />
<rect x="50" y="52" width="4" height="2" fill="#4B2D28" />
<rect x="54" y="52" width="1" height="1" fill="#895A51" />
<rect x="55" y="52" width="1" height="1" fill="#6A453F" />
<rect x="8" y="53" width="1" height="11" fill="#000000" />
<rect x="9" y="53" width="4" height="5" fill="#663931" />
<rect x="13" y="53" width="1" height="11" fill="#000000" />
<rect x="17" y="53" width="2" height="1" fill="#000000" opacity="0.568627" />
<rect x="20" y="53" width="3" height="1" fill="#000000" opacity="0.568627" />
<rect x="46" y="53" width="1" height="3" fill="#3C2622" opacity="0.411765" />
<rect x="47" y="53" width="1" height="4" fill="#180F0E" />
<rect x="48" y="53" width="1" height="5" fill="#432924" />
<rect x="54" y="53" width="3" height="1" fill="#4B2D28" />
<rect x="5" y="54" width="3" height="1" fill="#9C5347" />
<rect x="14" y="54" width="2" height="1" fill="#9C5347" />
<rect x="24" y="54" width="1" height="4" fill="#9C5347" />
<rect x="26" y="54" width="2" height="1" fill="#774B44" />
<rect x="29" y="54" width="1" height="1" fill="#774B44" />
<rect x="50" y="54" width="3" height="1" fill="#603D37" />
<rect x="53" y="54" width="1" height="1" fill="#4B2D28" />
<rect x="54" y="54" width="3" height="1" fill="#402823" />
<rect x="57" y="54" width="1" height="2" fill="#432924" />
<rect x="5" y="55" width="1" height="2" fill="#C87566" />
<rect x="6" y="55" width="1" height="3" fill="#9C5347" />
<rect x="7" y="55" width="1" height="2" fill="#C87566" />
<rect x="14" y="55" width="2" height="2" fill="#C87566" />
<rect x="26" y="55" width="4" height="2" fill="#895A51" />
<rect x="50" y="55" width="1" height="2" fill="#895A51" />
<rect x="51" y="55" width="4" height="1" fill="#6A453F" />
<rect x="55" y="55" width="1" height="2" fill="#603D37" />
<rect x="56" y="55" width="1" height="4" fill="#180F0E" />
<rect x="58" y="55" width="1" height="1" fill="#4B2D28" />
<rect x="59" y="55" width="1" height="5" fill="#4B2F2A" />
<rect x="31" y="56" width="15" height="1" fill="#000000" />
<rect x="46" y="56" width="1" height="1" fill="#180F0E" />
<rect x="51" y="56" width="4" height="1" fill="#895A51" />
<rect x="58" y="56" width="1" height="1" fill="#432924" />
<rect x="5" y="57" width="1" height="1" fill="#9C5347" />
<rect x="7" y="57" width="1" height="1" fill="#9C5347" />
<rect x="14" y="57" width="2" height="1" fill="#9C5347" />
<rect x="17" y="57" width="6" height="1" fill="#000000" />
<rect x="26" y="57" width="20" height="1" fill="#774B44" />
<rect x="46" y="57" width="2" height="1" fill="#603D37" />
<rect x="50" y="57" width="1" height="7" fill="#4B2D28" />
<rect x="51" y="57" width="5" height="1" fill="#774B44" />
<rect x="58" y="57" width="1" height="5" fill="#4B2D28" />
<rect x="5" y="58" width="3" height="2" fill="#C87566" />
<rect x="9" y="58" width="2" height="5" fill="#663931" />
<rect x="11" y="58" width="1" height="1" fill="#000000" />
<rect x="12" y="58" width="1" height="5" fill="#663931" />
<rect x="14" y="58" width="4" height="1" fill="#C87566" />
<rect x="18" y="58" width="1" height="1" fill="#9C5347" />
<rect x="19" y="58" width="6" height="1" fill="#C87566" />
<rect x="26" y="58" width="2" height="2" fill="#895A51" />
<rect x="28" y="58" width="1" height="3" fill="#774B44" />
<rect x="29" y="58" width="5" height="2" fill="#895A51" />
<rect x="34" y="58" width="1" height="3" fill="#774B44" />
<rect x="35" y="58" width="5" height="2" fill="#895A51" />
<rect x="40" y="58" width="1" height="3" fill="#774B44" />
<rect x="41" y="58" width="5" height="2" fill="#895A51" />
<rect x="46" y="58" width="1" height="1" fill="#603D37" />
<rect x="47" y="58" width="2" height="2" fill="#6A453F" />
<rect x="51" y="58" width="1" height="2" fill="#895A51" />
<rect x="52" y="58" width="1" height="2" fill="#774B44" />
<rect x="53" y="58" width="3" height="1" fill="#895A51" />
<rect x="11" y="59" width="1" height="4" fill="#663931" />
<rect x="14" y="59" width="2" height="1" fill="#C87566" />
<rect x="16" y="59" width="8" height="1" fill="#000000" />
<rect x="24" y="59" width="1" height="1" fill="#C87566" />
<rect x="46" y="59" width="1" height="2" fill="#774B44" />
<rect x="49" y="59" width="1" height="5" fill="#432924" />
<rect x="53" y="59" width="1" height="1" fill="#895A51" />
<rect x="54" y="59" width="4" height="1" fill="#4B2D28" />
<rect x="5" y="60" width="3" height="1" fill="#9C5347" />
<rect x="14" y="60" width="2" height="1" fill="#9C5347" />
<rect x="16" y="60" width="1" height="4" fill="#000000" />
<rect x="17" y="60" width="5" height="1" fill="#4B692F" />
<rect x="22" y="60" width="1" height="1" fill="#45612B" />
<rect x="23" y="60" width="1" height="4" fill="#000000" />
<rect x="24" y="60" width="1" height="3" fill="#9C5347" />
<rect x="26" y="60" width="2" height="1" fill="#774B44" />
<rect x="29" y="60" width="5" height="1" fill="#774B44" />
<rect x="35" y="60" width="5" height="1" fill="#774B44" />
<rect x="41" y="60" width="5" height="1" fill="#774B44" />
<rect x="47" y="60" width="2" height="1" fill="#603D37" />
<rect x="51" y="60" width="3" height="1" fill="#402823" />
<rect x="54" y="60" width="1" height="1" fill="#432924" />
<rect x="55" y="60" width="3" height="1" fill="#4B2D28" />
<rect x="59" y="60" width="1" height="4" fill="#4B2D28" />
<rect x="5" y="61" width="1" height="2" fill="#C87566" />
<rect x="6" y="61" width="1" height="2" fill="#9C5347" />
<rect x="7" y="61" width="1" height="2" fill="#C87566" />
<rect x="14" y="61" width="2" height="2" fill="#C87566" />
<rect x="17" y="61" width="1" height="1" fill="#4B692F" />
<rect x="18" y="61" width="1" height="1" fill="#884730" />
<rect x="19" y="61" width="1" height="2" fill="#4B692F" />
<rect x="20" y="61" width="1" height="1" fill="#45612B" />
<rect x="21" y="61" width="1" height="1" fill="#884730" />
<rect x="22" y="61" width="1" height="1" fill="#4B692F" />
<rect x="26" y="61" width="5" height="2" fill="#895A51" />
<rect x="31" y="61" width="1" height="2" fill="#774B44" />
<rect x="32" y="61" width="5" height="2" fill="#895A51" />
<rect x="37" y="61" width="1" height="2" fill="#774B44" />
<rect x="38" y="61" width="5" height="2" fill="#895A51" />
<rect x="43" y="61" width="1" height="2" fill="#774B44" />
<rect x="44" y="61" width="3" height="2" fill="#895A51" />
<rect x="47" y="61" width="2" height="2" fill="#6A453F" />
<rect x="51" y="61" width="4" height="1" fill="#4B2D28" />
<rect x="55" y="61" width="1" height="1" fill="#603D37" />
<rect x="56" y="61" width="1" height="2" fill="#180F0E" />
<rect x="60" y="61" width="1" height="3" fill="#4B2D28" />
<rect x="17" y="62" width="1" height="1" fill="#45612B" />
<rect x="18" y="62" width="1" height="1" fill="#4B692F" />
<rect x="20" y="62" width="1" height="1" fill="#884730" />
<rect x="21" y="62" width="2" height="1" fill="#45612B" />
<rect x="51" y="62" width="2" height="1" fill="#6A453F" />
<rect x="53" y="62" width="2" height="1" fill="#895A51" />
<rect x="55" y="62" width="1" height="1" fill="#774B44" />
<rect x="5" y="63" width="3" height="1" fill="#000000" />
<rect x="9" y="63" width="4" height="1" fill="#000000" />
<rect x="14" y="63" width="2" height="1" fill="#000000" />
<rect x="17" y="63" width="6" height="1" fill="#000000" />
<rect x="24" y="63" width="1" height="1" fill="#000000" />
<rect x="26" y="63" width="21" height="1" fill="#000000" />
<rect x="47" y="63" width="2" height="1" fill="#180F0E" />
<rect x="51" y="63" width="6" height="1" fill="#000000" />
</svg>