<svg width="14" height="14" viewBox="0 0 14 14" fill="none" xmlns="http://www.w3.org/2000/svg">
<g clip-path="url(#clip0_6_1004)">
<path d="M13.335 9.33189H7.33687V8.66689H6.6675V7.33252H6.0025V5.99814H5.33312V4.66814H4.66813V3.99876H10.6662V3.33376H3.33375V3.99876H2.66875V2.66439H3.33375V1.99939H0V2.66439H0.669375V8.66689H0V10.0013H0.669375V14H13.335V10.0013H14V8.66689H13.335V9.33189ZM1.33438 2.66439H1.99938V5.99814H1.33438V2.66439ZM6.0025 13.335H5.33312V10.0013H4.66813V13.335H2.66875V12.0006H3.33375V11.3313H2.66875V10.0013H1.99938V13.335H1.33438V8.66689H1.99938V7.33252H2.66875V5.99814H3.33375V5.33314H4.00312V5.99814H4.66813V7.33252H5.33312V8.66689H6.0025V13.335ZM12.67 13.335H6.6675V10.0013H12.67V13.335Z" fill="#3211D4"/>
<path d="M12.67 7.33252H13.335V8.66689H12.67V7.33252Z" fill="#3211D4"/>
<path d="M12.67 1.33435H13.335V1.99935H12.67V1.33435Z" fill="#3211D4"/>
<path d="M12.0006 5.99811H12.67V7.33248H12.0006V5.99811Z" fill="#3211D4"/>
<path d="M12.0006 0.664978H12.67V1.33435H12.0006V0.664978Z" fill="#3211D4"/>
<path d="M11.3356 4.66815H12.0006V5.99815H11.3356V4.66815Z" fill="#3211D4"/>
<path d="M11.3356 1.99939H12.67V2.66439H11.3356V1.99939Z" fill="#3211D4"/>
<path d="M10.6663 0H12.0006V0.665H10.6663V0Z" fill="#3211D4"/>
<path d="M12.0006 10.6663H10.0013V12.6656H12.0006V10.6663ZM11.3356 12.0006H10.6663V11.3313H11.3356V12.0006Z" fill="#3211D4"/>
<path d="M10.6663 3.99878H11.3356V4.66815H10.6663V3.99878Z" fill="#3211D4"/>
<path d="M10.6663 1.33435H11.3356V1.99935H10.6663V1.33435Z" fill="#3211D4"/>
<path d="M8.66687 7.99752V8.66689H11.3356V7.33252H10.6662V7.99752H8.66687Z" fill="#3211D4"/>
<path d="M10.0013 6.66748H10.6663V7.33248H10.0013V6.66748Z" fill="#3211D4"/>
<path d="M10.0013 0.664978H10.6663V1.33435H10.0013V0.664978Z" fill="#3211D4"/>
<path d="M9.33626 10.6663H7.33688V12.6656H9.33626V10.6663ZM8.66688 12.0006H8.00188V11.3313H8.66688V12.0006Z" fill="#3211D4"/>
<path d="M8.00186 7.33252H8.66686V7.99752H8.00186V7.33252Z" fill="#3211D4"/>
<path d="M8.00188 6.66748H10.0013V5.99811H7.33688V7.33248H8.00188V6.66748Z" fill="#3211D4"/>
<path d="M8.00186 0.664978H8.66686V1.99935H8.00186V0.664978Z" fill="#3211D4"/>
<path d="M6.66751 0H8.00189V0.665H6.66751V0Z" fill="#3211D4"/>
<path d="M4.66812 1.99939H8.00187V2.66439H4.66812V1.99939Z" fill="#3211D4"/>
<path d="M6.0025 0.664978H6.6675V1.33435H6.0025V0.664978Z" fill="#3211D4"/>
<path d="M4.66812 0H6.0025V0.665H4.66812V0Z" fill="#3211D4"/>
<path d="M2.66876 9.33185H4.66814V10.0012H2.66876V9.33185Z" fill="#3211D4"/>
<path d="M4.00311 0.664978H4.66811V1.99935H4.00311V0.664978Z" fill="#3211D4"/>
<path d="M2.66876 0H3.33376V0.665H2.66876V0Z" fill="#3211D4"/>
<path d="M1.33438 0.664978H1.99938V1.33435H1.33438V0.664978Z" fill="#3211D4"/>
</g>
<defs>
<clipPath id="clip0_6_1004">
<rect width="14" height="14" fill="white"/>
</clipPath>
</defs>
</svg>
