<?xml version="1.0" encoding="UTF-8" ?>
<svg version="1.1" width="16" height="16" xmlns="http://www.w3.org/2000/svg" shape-rendering="crispEdges">
<rect x="8" y="2" width="2" height="1" fill="#241C16" />
<rect x="8" y="3" width="1" height="3" fill="#241C16" />
<rect x="9" y="3" width="1" height="3" fill="#A96937" />
<rect x="10" y="3" width="1" height="1" fill="#241C16" />
<rect x="10" y="4" width="1" height="1" fill="#F6B756" />
<rect x="11" y="4" width="1" height="1" fill="#241C16" />
<rect x="0" y="5" width="8" height="1" fill="#241C16" />
<rect x="10" y="5" width="1" height="6" fill="#DB8543" />
<rect x="11" y="5" width="1" height="1" fill="#F6B756" />
<rect x="12" y="5" width="1" height="1" fill="#241C16" />
<rect x="0" y="6" width="1" height="5" fill="#241C16" />
<rect x="1" y="6" width="1" height="1" fill="#A96937" />
<rect x="2" y="6" width="7" height="1" fill="#F6B756" />
<rect x="9" y="6" width="1" height="4" fill="#DB8543" />
<rect x="11" y="6" width="1" height="4" fill="#DB8543" />
<rect x="12" y="6" width="1" height="1" fill="#F6B756" />
<rect x="13" y="6" width="1" height="1" fill="#241C16" />
<rect x="1" y="7" width="1" height="3" fill="#85542E" />
<rect x="2" y="7" width="7" height="2" fill="#DB8543" />
<rect x="12" y="7" width="2" height="1" fill="#DB8543" />
<rect x="14" y="7" width="1" height="2" fill="#241C16" />
<rect x="12" y="8" width="1" height="1" fill="#DB8543" />
<rect x="13" y="8" width="1" height="1" fill="#6B4528" />
<rect x="2" y="9" width="7" height="1" fill="#85542E" />
<rect x="12" y="9" width="1" height="1" fill="#6B4528" />
<rect x="13" y="9" width="1" height="1" fill="#241C16" />
<rect x="1" y="10" width="8" height="1" fill="#241C16" />
<rect x="9" y="10" width="1" height="2" fill="#85542E" />
<rect x="11" y="10" width="1" height="1" fill="#6B4528" />
<rect x="12" y="10" width="1" height="1" fill="#241C16" />
<rect x="8" y="11" width="1" height="3" fill="#241C16" />
<rect x="10" y="11" width="1" height="1" fill="#6B4528" />
<rect x="11" y="11" width="1" height="1" fill="#241C16" />
<rect x="9" y="12" width="1" height="1" fill="#6B4528" />
<rect x="10" y="12" width="1" height="1" fill="#241C16" />
<rect x="9" y="13" width="1" height="1" fill="#241C16" />
</svg>