<?xml version="1.0" encoding="UTF-8" ?>
<svg version="1.1" width="32" height="32" xmlns="http://www.w3.org/2000/svg" shape-rendering="crispEdges">
<rect x="0" y="0" width="10" height="2" fill="#3211D4" />
<rect x="22" y="0" width="10" height="2" fill="#3211D4" />
<rect x="0" y="2" width="2" height="9" fill="#3211D4" />
<rect x="10" y="2" width="2" height="6" fill="#3211D4" />
<rect x="20" y="2" width="2" height="6" fill="#3211D4" />
<rect x="30" y="2" width="2" height="9" fill="#3211D4" />
<rect x="4" y="4" width="4" height="2" fill="#3211D4" />
<rect x="24" y="4" width="4" height="2" fill="#3211D4" />
<rect x="12" y="5" width="8" height="2" fill="#3211D4" />
<rect x="4" y="6" width="2" height="2" fill="#3211D4" />
<rect x="26" y="6" width="2" height="2" fill="#3211D4" />
<rect x="8" y="8" width="2" height="2" fill="#3211D4" />
<rect x="22" y="8" width="2" height="2" fill="#3211D4" />
<rect x="2" y="10" width="6" height="2" fill="#3211D4" />
<rect x="24" y="10" width="6" height="2" fill="#3211D4" />
<rect x="4" y="12" width="2" height="10" fill="#3211D4" />
<rect x="26" y="12" width="2" height="10" fill="#3211D4" />
<rect x="9" y="15" width="4" height="1" fill="#3211D4" />
<rect x="19" y="15" width="4" height="1" fill="#3211D4" />
<rect x="9" y="16" width="2" height="3" fill="#3211D4" />
<rect x="11" y="16" width="2" height="1" fill="#EBE7FB" />
<rect x="19" y="16" width="2" height="3" fill="#3211D4" />
<rect x="21" y="16" width="2" height="1" fill="#EBE7FB" />
<rect x="11" y="17" width="2" height="2" fill="#3211D4" />
<rect x="21" y="17" width="2" height="2" fill="#3211D4" />
<rect x="13" y="18" width="6" height="2" fill="#1144D4" />
<rect x="11" y="20" width="2" height="2" fill="#1144D4" />
<rect x="13" y="20" width="2" height="2" fill="#3211D4" />
<rect x="15" y="20" width="2" height="4" fill="#1144D4" />
<rect x="17" y="20" width="2" height="2" fill="#3211D4" />
<rect x="19" y="20" width="2" height="2" fill="#1144D4" />
<rect x="6" y="22" width="2" height="2" fill="#3211D4" />
<rect x="13" y="22" width="2" height="2" fill="#1144D4" />
<rect x="17" y="22" width="2" height="2" fill="#1144D4" />
<rect x="24" y="22" width="2" height="2" fill="#3211D4" />
<rect x="8" y="24" width="2" height="2" fill="#3211D4" />
<rect x="22" y="24" width="2" height="2" fill="#3211D4" />
<rect x="10" y="26" width="12" height="2" fill="#3211D4" />
</svg>