<?xml version="1.0" encoding="UTF-8" ?>
<svg version="1.1" width="32" height="32" xmlns="http://www.w3.org/2000/svg" shape-rendering="crispEdges">
<rect x="7" y="10" width="5" height="1" fill="#260D1D" />
<rect x="19" y="10" width="5" height="1" fill="#260D1D" />
<rect x="6" y="11" width="1" height="2" fill="#260D1D" />
<rect x="7" y="11" width="5" height="1" fill="#DAADC9" />
<rect x="12" y="11" width="1" height="1" fill="#260D1D" />
<rect x="18" y="11" width="1" height="1" fill="#260D1D" />
<rect x="19" y="11" width="5" height="1" fill="#DAADC9" />
<rect x="24" y="11" width="1" height="2" fill="#260D1D" />
<rect x="7" y="12" width="1" height="1" fill="#260D1D" />
<rect x="8" y="12" width="1" height="1" fill="#DAADC9" />
<rect x="9" y="12" width="2" height="1" fill="#B48AA4" />
<rect x="11" y="12" width="2" height="1" fill="#DAADC9" />
<rect x="13" y="12" width="5" height="1" fill="#260D1D" />
<rect x="18" y="12" width="2" height="1" fill="#DAADC9" />
<rect x="20" y="12" width="2" height="1" fill="#B48AA4" />
<rect x="22" y="12" width="1" height="1" fill="#DAADC9" />
<rect x="23" y="12" width="1" height="1" fill="#260D1D" />
<rect x="8" y="13" width="1" height="1" fill="#260D1D" />
<rect x="9" y="13" width="1" height="1" fill="#DAADC9" />
<rect x="10" y="13" width="1" height="1" fill="#CB9EBA" />
<rect x="11" y="13" width="1" height="1" fill="#260D1D" />
<rect x="12" y="13" width="1" height="1" fill="#CDA1BD" />
<rect x="13" y="13" width="4" height="1" fill="#D1A4C0" />
<rect x="17" y="13" width="1" height="4" fill="#DAADC9" />
<rect x="18" y="13" width="1" height="1" fill="#CB9EBA" />
<rect x="19" y="13" width="1" height="1" fill="#260D1D" />
<rect x="20" y="13" width="1" height="1" fill="#CB9EBA" />
<rect x="21" y="13" width="1" height="1" fill="#DAADC9" />
<rect x="22" y="13" width="1" height="1" fill="#260D1D" />
<rect x="9" y="14" width="2" height="1" fill="#260D1D" />
<rect x="11" y="14" width="1" height="1" fill="#B48AA4" />
<rect x="12" y="14" width="1" height="1" fill="#CB9EBA" />
<rect x="13" y="14" width="4" height="3" fill="#DAADC9" />
<rect x="18" y="14" width="1" height="3" fill="#DAADC9" />
<rect x="19" y="14" width="1" height="1" fill="#B48AA4" />
<rect x="20" y="14" width="2" height="1" fill="#260D1D" />
<rect x="10" y="15" width="1" height="2" fill="#260D1D" />
<rect x="11" y="15" width="1" height="1" fill="#CB9EBA" />
<rect x="12" y="15" width="1" height="2" fill="#DAADC9" />
<rect x="19" y="15" width="1" height="1" fill="#CDA1BD" />
<rect x="20" y="15" width="1" height="2" fill="#260D1D" />
<rect x="9" y="16" width="1" height="5" fill="#260D1D" />
<rect x="11" y="16" width="1" height="2" fill="#DAADC9" />
<rect x="19" y="16" width="1" height="1" fill="#CB9EBA" />
<rect x="21" y="16" width="1" height="5" fill="#260D1D" />
<rect x="10" y="17" width="1" height="2" fill="#DAADC9" />
<rect x="12" y="17" width="2" height="1" fill="#260D1D" />
<rect x="14" y="17" width="3" height="1" fill="#DAADC9" />
<rect x="17" y="17" width="2" height="1" fill="#260D1D" />
<rect x="19" y="17" width="1" height="1" fill="#DAADC9" />
<rect x="20" y="17" width="1" height="1" fill="#D1A4C0" />
<rect x="11" y="18" width="2" height="1" fill="#DA7E7E" />
<rect x="13" y="18" width="1" height="1" fill="#DAADC9" />
<rect x="14" y="18" width="3" height="1" fill="#260D1D" />
<rect x="17" y="18" width="1" height="1" fill="#DAADC9" />
<rect x="18" y="18" width="2" height="1" fill="#DA7E7E" />
<rect x="20" y="18" width="1" height="2" fill="#DAADC9" />
<rect x="10" y="19" width="1" height="1" fill="#B48AA4" />
<rect x="11" y="19" width="1" height="1" fill="#CB9EBA" />
<rect x="12" y="19" width="1" height="1" fill="#DAADC9" />
<rect x="13" y="19" width="1" height="1" fill="#260D1D" />
<rect x="14" y="19" width="1" height="1" fill="#695461" />
<rect x="15" y="19" width="1" height="1" fill="#AD8A9F" />
<rect x="16" y="19" width="1" height="1" fill="#695461" />
<rect x="17" y="19" width="1" height="1" fill="#260D1D" />
<rect x="18" y="19" width="2" height="2" fill="#DAADC9" />
<rect x="10" y="20" width="1" height="2" fill="#260D1D" />
<rect x="11" y="20" width="1" height="1" fill="#B48AA4" />
<rect x="12" y="20" width="1" height="1" fill="#CB9EBA" />
<rect x="13" y="20" width="1" height="1" fill="#DAADC9" />
<rect x="14" y="20" width="3" height="1" fill="#260D1D" />
<rect x="17" y="20" width="1" height="1" fill="#DAADC9" />
<rect x="20" y="20" width="1" height="2" fill="#260D1D" />
<rect x="11" y="21" width="2" height="1" fill="#260D1D" />
<rect x="13" y="21" width="2" height="1" fill="#B48AA4" />
<rect x="15" y="21" width="3" height="1" fill="#CB9EBA" />
<rect x="18" y="21" width="2" height="1" fill="#260D1D" />
<rect x="12" y="22" width="7" height="1" fill="#260D1D" />
</svg>