<?xml version="1.0" encoding="UTF-8" ?>
<svg version="1.1" width="32" height="32" xmlns="http://www.w3.org/2000/svg" shape-rendering="crispEdges">
<rect x="15" y="0" width="2" height="1" fill="#24120F" />
<rect x="12" y="1" width="3" height="1" fill="#24120F" />
<rect x="15" y="1" width="2" height="3" fill="#613A25" />
<rect x="17" y="1" width="3" height="1" fill="#24120F" />
<rect x="10" y="2" width="2" height="1" fill="#24120F" />
<rect x="12" y="2" width="2" height="2" fill="#5B3A29" />
<rect x="14" y="2" width="1" height="8" fill="#492B1B" />
<rect x="17" y="2" width="1" height="8" fill="#492B1B" />
<rect x="18" y="2" width="2" height="2" fill="#613A25" />
<rect x="20" y="2" width="2" height="1" fill="#24120F" />
<rect x="8" y="3" width="2" height="1" fill="#24120F" />
<rect x="10" y="3" width="1" height="1" fill="#4F3020" />
<rect x="11" y="3" width="1" height="2" fill="#5B3A29" />
<rect x="20" y="3" width="2" height="2" fill="#613A25" />
<rect x="22" y="3" width="2" height="1" fill="#24120F" />
<rect x="5" y="4" width="3" height="1" fill="#24120F" />
<rect x="8" y="4" width="3" height="1" fill="#5B3A29" />
<rect x="12" y="4" width="2" height="1" fill="#4F2F1E" />
<rect x="15" y="4" width="1" height="5" fill="#613A25" />
<rect x="16" y="4" width="1" height="1" fill="#50301E" />
<rect x="18" y="4" width="2" height="1" fill="#4F2F1E" />
<rect x="22" y="4" width="1" height="3" fill="#492B1B" />
<rect x="23" y="4" width="1" height="2" fill="#5B3A29" />
<rect x="24" y="4" width="3" height="1" fill="#24120F" />
<rect x="3" y="5" width="2" height="1" fill="#24120F" />
<rect x="5" y="5" width="4" height="1" fill="#5B3A29" />
<rect x="9" y="5" width="2" height="1" fill="#492B1B" />
<rect x="11" y="5" width="1" height="1" fill="#4F2F1E" />
<rect x="12" y="5" width="2" height="2" fill="#613A25" />
<rect x="16" y="5" width="1" height="5" fill="#613A25" />
<rect x="18" y="5" width="2" height="2" fill="#5B3A29" />
<rect x="20" y="5" width="2" height="1" fill="#4F2F1E" />
<rect x="24" y="5" width="3" height="1" fill="#5B3A29" />
<rect x="27" y="5" width="2" height="1" fill="#24120F" />
<rect x="1" y="6" width="2" height="1" fill="#24120F" />
<rect x="3" y="6" width="1" height="3" fill="#492B1B" />
<rect x="4" y="6" width="3" height="1" fill="#5B3A29" />
<rect x="7" y="6" width="3" height="1" fill="#492B1B" />
<rect x="10" y="6" width="2" height="1" fill="#613A25" />
<rect x="20" y="6" width="2" height="2" fill="#5B3A29" />
<rect x="23" y="6" width="2" height="1" fill="#492B1B" />
<rect x="25" y="6" width="3" height="1" fill="#5B3A29" />
<rect x="28" y="6" width="1" height="1" fill="#4F3020" />
<rect x="29" y="6" width="2" height="1" fill="#24120F" />
<rect x="0" y="7" width="1" height="7" fill="#24120F" />
<rect x="1" y="7" width="2" height="2" fill="#613A25" />
<rect x="4" y="7" width="1" height="1" fill="#5B3A29" />
<rect x="5" y="7" width="2" height="1" fill="#492B1B" />
<rect x="7" y="7" width="3" height="2" fill="#5B3A29" />
<rect x="10" y="7" width="1" height="3" fill="#492B1B" />
<rect x="11" y="7" width="1" height="1" fill="#613A25" />
<rect x="12" y="7" width="2" height="1" fill="#4F2F1E" />
<rect x="18" y="7" width="2" height="1" fill="#492B1B" />
<rect x="22" y="7" width="2" height="2" fill="#5B3A29" />
<rect x="24" y="7" width="1" height="1" fill="#4F3020" />
<rect x="25" y="7" width="2" height="1" fill="#4F2F1E" />
<rect x="27" y="7" width="4" height="1" fill="#5B3A29" />
<rect x="31" y="7" width="1" height="7" fill="#24120F" />
<rect x="4" y="8" width="1" height="1" fill="#492B1B" />
<rect x="5" y="8" width="2" height="2" fill="#5B3A29" />
<rect x="11" y="8" width="1" height="1" fill="#4F2F1E" />
<rect x="12" y="8" width="2" height="2" fill="#5B3A29" />
<rect x="18" y="8" width="2" height="2" fill="#613A25" />
<rect x="20" y="8" width="2" height="1" fill="#4F2F1E" />
<rect x="24" y="8" width="3" height="1" fill="#5B3A29" />
<rect x="27" y="8" width="1" height="3" fill="#492B1B" />
<rect x="28" y="8" width="1" height="1" fill="#4F2F1E" />
<rect x="29" y="8" width="2" height="1" fill="#5B3A29" />
<rect x="1" y="9" width="2" height="1" fill="#4F2F1E" />
<rect x="3" y="9" width="2" height="1" fill="#5B3A29" />
<rect x="7" y="9" width="3" height="1" fill="#492B1B" />
<rect x="11" y="9" width="1" height="2" fill="#5B3A29" />
<rect x="15" y="9" width="1" height="1" fill="#50301E" />
<rect x="20" y="9" width="1" height="2" fill="#613A25" />
<rect x="21" y="9" width="4" height="1" fill="#492B1B" />
<rect x="25" y="9" width="2" height="1" fill="#5B3A29" />
<rect x="28" y="9" width="1" height="2" fill="#613A25" />
<rect x="29" y="9" width="2" height="1" fill="#4F2F1E" />
<rect x="1" y="10" width="3" height="1" fill="#5B3A29" />
<rect x="4" y="10" width="4" height="1" fill="#4F2F1E" />
<rect x="8" y="10" width="3" height="1" fill="#5B3A29" />
<rect x="12" y="10" width="8" height="1" fill="#24120F" />
<rect x="21" y="10" width="1" height="1" fill="#4F2F1E" />
<rect x="22" y="10" width="3" height="1" fill="#5B3A29" />
<rect x="25" y="10" width="2" height="1" fill="#492B1B" />
<rect x="29" y="10" width="2" height="1" fill="#613A25" />
<rect x="1" y="11" width="1" height="1" fill="#5B3A29" />
<rect x="2" y="11" width="3" height="1" fill="#492B1B" />
<rect x="5" y="11" width="4" height="1" fill="#5B3A29" />
<rect x="9" y="11" width="3" height="1" fill="#24120F" />
<rect x="12" y="11" width="2" height="5" fill="#432E23" />
<rect x="14" y="11" width="1" height="6" fill="#24120F" />
<rect x="15" y="11" width="2" height="5" fill="#432E23" />
<rect x="17" y="11" width="1" height="6" fill="#24120F" />
<rect x="18" y="11" width="2" height="5" fill="#432E23" />
<rect x="20" y="11" width="3" height="1" fill="#24120F" />
<rect x="23" y="11" width="5" height="1" fill="#5B3A29" />
<rect x="28" y="11" width="2" height="1" fill="#4F2F1E" />
<rect x="30" y="11" width="1" height="1" fill="#613A25" />
<rect x="1" y="12" width="1" height="1" fill="#492B1B" />
<rect x="2" y="12" width="2" height="2" fill="#613A25" />
<rect x="4" y="12" width="1" height="1" fill="#4F2F1E" />
<rect x="5" y="12" width="1" height="1" fill="#5B3A29" />
<rect x="6" y="12" width="1" height="1" fill="#4F3020" />
<rect x="7" y="12" width="2" height="1" fill="#24120F" />
<rect x="9" y="12" width="2" height="4" fill="#432E23" />
<rect x="11" y="12" width="1" height="5" fill="#24120F" />
<rect x="20" y="12" width="1" height="5" fill="#24120F" />
<rect x="21" y="12" width="2" height="4" fill="#432E23" />
<rect x="23" y="12" width="2" height="1" fill="#24120F" />
<rect x="25" y="12" width="5" height="1" fill="#5B3A29" />
<rect x="30" y="12" width="1" height="1" fill="#4F2F1E" />
<rect x="1" y="13" width="1" height="1" fill="#613A25" />
<rect x="4" y="13" width="3" height="1" fill="#24120F" />
<rect x="7" y="13" width="1" height="3" fill="#432E23" />
<rect x="8" y="13" width="1" height="4" fill="#24120F" />
<rect x="23" y="13" width="1" height="4" fill="#24120F" />
<rect x="24" y="13" width="1" height="3" fill="#432E23" />
<rect x="25" y="13" width="3" height="1" fill="#24120F" />
<rect x="28" y="13" width="1" height="1" fill="#4F3020" />
<rect x="29" y="13" width="2" height="1" fill="#5B3A29" />
<rect x="1" y="14" width="3" height="1" fill="#24120F" />
<rect x="4" y="14" width="1" height="7" fill="#432E23" />
<rect x="5" y="14" width="1" height="17" fill="#24120F" />
<rect x="6" y="14" width="1" height="2" fill="#432E23" />
<rect x="25" y="14" width="1" height="2" fill="#432E23" />
<rect x="26" y="14" width="1" height="17" fill="#24120F" />
<rect x="27" y="14" width="1" height="7" fill="#432E23" />
<rect x="28" y="14" width="3" height="1" fill="#24120F" />
<rect x="1" y="15" width="1" height="16" fill="#24120F" />
<rect x="2" y="15" width="2" height="6" fill="#432E23" />
<rect x="28" y="15" width="2" height="6" fill="#432E23" />
<rect x="30" y="15" width="1" height="16" fill="#24120F" />
<rect x="6" y="16" width="2" height="1" fill="#24120F" />
<rect x="9" y="16" width="2" height="1" fill="#24120F" />
<rect x="12" y="16" width="2" height="1" fill="#24120F" />
<rect x="15" y="16" width="2" height="1" fill="#24120F" />
<rect x="18" y="16" width="2" height="1" fill="#24120F" />
<rect x="21" y="16" width="2" height="1" fill="#24120F" />
<rect x="24" y="16" width="2" height="1" fill="#24120F" />
<rect x="6" y="17" width="7" height="1" fill="#432E23" />
<rect x="13" y="17" width="6" height="2" fill="#4F392E" />
<rect x="19" y="17" width="7" height="1" fill="#432E23" />
<rect x="6" y="18" width="5" height="1" fill="#432E23" />
<rect x="11" y="18" width="2" height="1" fill="#4F392E" />
<rect x="19" y="18" width="2" height="1" fill="#4F392E" />
<rect x="21" y="18" width="5" height="1" fill="#432E23" />
<rect x="6" y="19" width="20" height="1" fill="#24120F" />
<rect x="6" y="20" width="20" height="1" fill="#432E23" />
<rect x="2" y="21" width="1" height="1" fill="#432E23" />
<rect x="3" y="21" width="2" height="10" fill="#4F392E" />
<rect x="6" y="21" width="1" height="11" fill="#432E23" />
<rect x="7" y="21" width="9" height="2" fill="#4F392E" />
<rect x="16" y="21" width="1" height="3" fill="#432E23" />
<rect x="17" y="21" width="9" height="1" fill="#4F392E" />
<rect x="27" y="21" width="2" height="10" fill="#4F392E" />
<rect x="29" y="21" width="1" height="1" fill="#432E23" />
<rect x="2" y="22" width="1" height="9" fill="#4F392E" />
<rect x="17" y="22" width="2" height="1" fill="#4F392E" />
<rect x="19" y="22" width="3" height="1" fill="#24120F" />
<rect x="22" y="22" width="4" height="1" fill="#4F392E" />
<rect x="29" y="22" width="1" height="9" fill="#4F392E" />
<rect x="7" y="23" width="1" height="1" fill="#432E23" />
<rect x="8" y="23" width="7" height="1" fill="#24120F" />
<rect x="15" y="23" width="1" height="1" fill="#432E23" />
<rect x="17" y="23" width="1" height="1" fill="#432E23" />
<rect x="18" y="23" width="1" height="1" fill="#24120F" />
<rect x="19" y="23" width="3" height="4" fill="#5B3D2D" />
<rect x="22" y="23" width="1" height="1" fill="#24120F" />
<rect x="23" y="23" width="3" height="1" fill="#432E23" />
<rect x="7" y="24" width="1" height="2" fill="#4F392E" />
<rect x="8" y="24" width="1" height="4" fill="#24120F" />
<rect x="11" y="24" width="1" height="3" fill="#24120F" opacity="0.607843" />
<rect x="14" y="24" width="1" height="4" fill="#24120F" />
<rect x="15" y="24" width="2" height="2" fill="#4F392E" />
<rect x="17" y="24" width="1" height="8" fill="#24120F" />
<rect x="18" y="24" width="1" height="8" fill="#5B3D2D" />
<rect x="22" y="24" width="1" height="8" fill="#5B3D2D" />
<rect x="23" y="24" width="1" height="8" fill="#24120F" />
<rect x="24" y="24" width="1" height="2" fill="#4F392E" />
<rect x="25" y="24" width="1" height="3" fill="#432E23" />
<rect x="9" y="25" width="2" height="1" fill="#24120F" opacity="0.607843" />
<rect x="12" y="25" width="2" height="1" fill="#24120F" opacity="0.607843" />
<rect x="7" y="26" width="1" height="1" fill="#432E23" />
<rect x="15" y="26" width="2" height="1" fill="#432E23" />
<rect x="24" y="26" width="1" height="1" fill="#432E23" />
<rect x="7" y="27" width="1" height="2" fill="#4F392E" />
<rect x="9" y="27" width="5" height="1" fill="#24120F" />
<rect x="15" y="27" width="2" height="2" fill="#4F392E" />
<rect x="19" y="27" width="2" height="5" fill="#5B3D2D" />
<rect x="21" y="27" width="1" height="1" fill="#24120F" />
<rect x="24" y="27" width="2" height="2" fill="#4F392E" />
<rect x="8" y="28" width="1" height="1" fill="#4F392E" />
<rect x="9" y="28" width="1" height="2" fill="#432E23" />
<rect x="10" y="28" width="5" height="1" fill="#4F392E" />
<rect x="21" y="28" width="1" height="4" fill="#5B3D2D" />
<rect x="7" y="29" width="2" height="1" fill="#432E23" />
<rect x="10" y="29" width="7" height="1" fill="#432E23" />
<rect x="24" y="29" width="2" height="1" fill="#432E23" />
<rect x="7" y="30" width="6" height="2" fill="#4F392E" />
<rect x="13" y="30" width="1" height="2" fill="#432E23" />
<rect x="14" y="30" width="3" height="2" fill="#4F392E" />
<rect x="24" y="30" width="2" height="2" fill="#4F392E" />
<rect x="2" y="31" width="3" height="1" fill="#24120F" />
<rect x="5" y="31" width="1" height="1" fill="#432E23" />
<rect x="26" y="31" width="1" height="1" fill="#4F392E" />
<rect x="27" y="31" width="3" height="1" fill="#24120F" />
</svg>