<?xml version="1.0" encoding="UTF-8" ?>
<svg version="1.1" width="16" height="16" xmlns="http://www.w3.org/2000/svg" shape-rendering="crispEdges">
<rect x="1" y="0" width="1" height="1" fill="#E4C96A" opacity="0.752941" />
<rect x="2" y="0" width="6" height="1" fill="#DBC05F" />
<rect x="1" y="1" width="5" height="1" fill="#DBC05F" />
<rect x="6" y="1" width="1" height="1" fill="#BC9B4B" />
<rect x="7" y="1" width="3" height="3" fill="#DBC05F" />
<rect x="11" y="1" width="1" height="1" fill="#E4B364" opacity="0.847059" />
<rect x="0" y="2" width="1" height="3" fill="#DBC05F" />
<rect x="1" y="2" width="1" height="1" fill="#DEB15E" />
<rect x="2" y="2" width="5" height="1" fill="#DBC05F" />
<rect x="10" y="2" width="1" height="1" fill="#DEB15E" />
<rect x="11" y="2" width="1" height="1" fill="#E4C96A" opacity="0.752941" />
<rect x="1" y="3" width="3" height="4" fill="#DBC05F" />
<rect x="4" y="3" width="1" height="1" fill="#BC9B4B" />
<rect x="5" y="3" width="2" height="2" fill="#DBC05F" />
<rect x="10" y="3" width="2" height="5" fill="#DBC05F" />
<rect x="4" y="4" width="1" height="3" fill="#DBC05F" />
<rect x="7" y="4" width="1" height="5" fill="#DBC05F" />
<rect x="8" y="4" width="1" height="1" fill="#DEB15E" />
<rect x="9" y="4" width="1" height="4" fill="#DBC05F" />
<rect x="12" y="4" width="2" height="1" fill="#E4C96A" opacity="0.752941" />
<rect x="0" y="5" width="1" height="1" fill="#DEB15E" />
<rect x="5" y="5" width="1" height="2" fill="#DBC05F" />
<rect x="6" y="5" width="1" height="1" fill="#DEB15E" />
<rect x="8" y="5" width="1" height="9" fill="#DBC05F" />
<rect x="12" y="5" width="1" height="1" fill="#DEB15E" />
<rect x="0" y="6" width="1" height="10" fill="#DBC05F" />
<rect x="6" y="6" width="1" height="2" fill="#DBC05F" />
<rect x="12" y="6" width="1" height="2" fill="#DBC05F" />
<rect x="1" y="7" width="2" height="1" fill="#DBC05F" />
<rect x="3" y="7" width="3" height="1" fill="#5B3E24" />
<rect x="13" y="7" width="1" height="1" fill="#DBC05F" />
<rect x="1" y="8" width="1" height="1" fill="#BC9B4B" />
<rect x="2" y="8" width="1" height="1" fill="#6D4F34" />
<rect x="4" y="8" width="1" height="5" fill="#5B3D2D" opacity="0.866667" />
<rect x="6" y="8" width="1" height="1" fill="#6D4F34" />
<rect x="9" y="8" width="1" height="1" fill="#BC9B4B" />
<rect x="10" y="8" width="1" height="1" fill="#DBC05F" />
<rect x="11" y="8" width="3" height="1" fill="#52382B" />
<rect x="1" y="9" width="1" height="3" fill="#6D4F34" />
<rect x="7" y="9" width="1" height="1" fill="#6D4F34" />
<rect x="9" y="9" width="1" height="7" fill="#DBC05F" />
<rect x="10" y="9" width="2" height="1" fill="#52382B" />
<rect x="12" y="9" width="3" height="3" fill="#5B3D2D" />
<rect x="2" y="10" width="2" height="1" fill="#5B3D2D" opacity="0.866667" />
<rect x="5" y="10" width="2" height="1" fill="#5B3D2D" opacity="0.866667" />
<rect x="7" y="10" width="1" height="2" fill="#5B3E24" />
<rect x="10" y="10" width="1" height="6" fill="#52382B" />
<rect x="11" y="10" width="1" height="6" fill="#5B3D2D" />
<rect x="1" y="12" width="1" height="3" fill="#DBC05F" />
<rect x="2" y="12" width="1" height="1" fill="#5B3E24" />
<rect x="6" y="12" width="1" height="1" fill="#6D4F34" />
<rect x="7" y="12" width="1" height="3" fill="#DBC05F" />
<rect x="12" y="12" width="2" height="4" fill="#5B3D2D" />
<rect x="14" y="12" width="1" height="1" fill="#0D0906" />
<rect x="2" y="13" width="1" height="3" fill="#DBC05F" />
<rect x="3" y="13" width="2" height="1" fill="#5B3E24" />
<rect x="5" y="13" width="1" height="1" fill="#6D4F34" />
<rect x="6" y="13" width="1" height="3" fill="#DBC05F" />
<rect x="14" y="13" width="1" height="3" fill="#5B3D2D" />
<rect x="3" y="14" width="3" height="2" fill="#DBC05F" />
<rect x="8" y="14" width="1" height="1" fill="#DEB15E" />
<rect x="1" y="15" width="1" height="1" fill="#BC9B4B" />
<rect x="7" y="15" width="1" height="1" fill="#DEB15E" />
<rect x="8" y="15" width="1" height="1" fill="#DBC05F" />
</svg>