<?xml version="1.0" encoding="UTF-8" ?>
<svg version="1.1" width="32" height="32" xmlns="http://www.w3.org/2000/svg" shape-rendering="crispEdges">
<rect x="12" y="7" width="2" height="2" fill="#FFF8F8" />
<rect x="14" y="7" width="2" height="3" fill="#9E0909" />
<rect x="11" y="8" width="1" height="1" fill="#FFF8F8" />
<rect x="16" y="8" width="1" height="2" fill="#9E0909" />
<rect x="9" y="9" width="5" height="1" fill="#9E0909" />
<rect x="17" y="9" width="3" height="1" fill="#985C6C" />
<rect x="10" y="10" width="1" height="1" fill="#985C6C" />
<rect x="11" y="10" width="5" height="2" fill="#E7ABBA" />
<rect x="16" y="10" width="4" height="2" fill="#C88092" />
<rect x="20" y="10" width="1" height="1" fill="#985C6C" />
<rect x="9" y="11" width="1" height="2" fill="#985C6C" />
<rect x="10" y="11" width="1" height="1" fill="#E7ABBA" />
<rect x="20" y="11" width="1" height="2" fill="#C88092" />
<rect x="21" y="11" width="1" height="6" fill="#985C6C" />
<rect x="10" y="12" width="1" height="1" fill="#000000" />
<rect x="11" y="12" width="2" height="1" fill="#E7ABBA" />
<rect x="13" y="12" width="1" height="1" fill="#000000" />
<rect x="14" y="12" width="4" height="3" fill="#E7ABBA" />
<rect x="18" y="12" width="2" height="1" fill="#C88092" />
<rect x="8" y="13" width="5" height="1" fill="#B67989" />
<rect x="13" y="13" width="1" height="4" fill="#E7ABBA" />
<rect x="18" y="13" width="3" height="2" fill="#E7ABBA" />
<rect x="22" y="13" width="1" height="1" fill="#985C6C" />
<rect x="8" y="14" width="1" height="2" fill="#B67989" />
<rect x="9" y="14" width="1" height="1" fill="#985C6C" />
<rect x="10" y="14" width="1" height="1" fill="#B07585" />
<rect x="11" y="14" width="1" height="1" fill="#985C6C" />
<rect x="12" y="14" width="1" height="2" fill="#B67989" />
<rect x="23" y="14" width="1" height="1" fill="#985C6C" />
<rect x="9" y="15" width="3" height="1" fill="#B67989" />
<rect x="14" y="15" width="1" height="1" fill="#E7ABBA" />
<rect x="15" y="15" width="4" height="2" fill="#C88092" />
<rect x="19" y="15" width="2" height="1" fill="#E7ABBA" />
<rect x="9" y="16" width="1" height="1" fill="#985C6C" />
<rect x="10" y="16" width="3" height="1" fill="#E7ABBA" />
<rect x="14" y="16" width="1" height="1" fill="#C88092" />
<rect x="19" y="16" width="1" height="1" fill="#C88092" />
<rect x="20" y="16" width="1" height="1" fill="#E7ABBA" />
<rect x="10" y="17" width="11" height="1" fill="#985C6C" />
<rect x="11" y="18" width="1" height="1" fill="#985C6C" />
<rect x="13" y="18" width="1" height="1" fill="#985C6C" />
<rect x="18" y="18" width="1" height="1" fill="#985C6C" />
<rect x="20" y="18" width="1" height="1" fill="#985C6C" />
</svg>