<?xml version="1.0" encoding="UTF-8" ?>
<svg version="1.1" width="60" height="40" xmlns="http://www.w3.org/2000/svg" shape-rendering="crispEdges">
<rect x="28" y="4" width="3" height="32" fill="#3211D4" />
<rect x="27" y="5" width="1" height="30" fill="#3211D4" />
<rect x="31" y="5" width="1" height="30" fill="#3211D4" />
<rect x="25" y="6" width="2" height="28" fill="#3211D4" />
<rect x="24" y="7" width="1" height="26" fill="#3211D4" />
<rect x="23" y="8" width="1" height="24" fill="#3211D4" />
<rect x="21" y="9" width="2" height="22" fill="#3211D4" />
<rect x="20" y="10" width="1" height="20" fill="#3211D4" />
<rect x="41" y="10" width="3" height="2" fill="#3211D4" />
<rect x="19" y="11" width="1" height="18" fill="#3211D4" />
<rect x="44" y="11" width="1" height="3" fill="#3211D4" />
<rect x="13" y="12" width="6" height="16" fill="#3211D4" />
<rect x="43" y="12" width="1" height="1" fill="#3211D4" />
<rect x="45" y="12" width="1" height="3" fill="#3211D4" />
<rect x="12" y="13" width="1" height="14" fill="#3211D4" />
<rect x="36" y="13" width="2" height="2" fill="#3211D4" />
<rect x="46" y="13" width="1" height="4" fill="#3211D4" />
<rect x="11" y="14" width="1" height="12" fill="#3211D4" />
<rect x="38" y="14" width="2" height="2" fill="#3211D4" />
<rect x="47" y="14" width="1" height="11" fill="#3211D4" />
<rect x="37" y="15" width="1" height="1" fill="#3211D4" />
<rect x="40" y="15" width="1" height="9" fill="#3211D4" />
<rect x="39" y="16" width="1" height="2" fill="#3211D4" />
<rect x="48" y="16" width="1" height="7" fill="#3211D4" />
<rect x="41" y="17" width="1" height="5" fill="#3211D4" />
<rect x="39" y="21" width="1" height="4" fill="#3211D4" />
<rect x="46" y="22" width="1" height="4" fill="#3211D4" />
<rect x="37" y="23" width="2" height="2" fill="#3211D4" />
<rect x="36" y="24" width="1" height="2" fill="#3211D4" />
<rect x="45" y="24" width="1" height="3" fill="#3211D4" />
<rect x="37" y="25" width="1" height="1" fill="#3211D4" />
<rect x="44" y="25" width="1" height="3" fill="#3211D4" />
<rect x="43" y="26" width="1" height="3" fill="#3211D4" />
<rect x="41" y="27" width="2" height="2" fill="#3211D4" />
</svg>