<?xml version="1.0" encoding="UTF-8" ?>
<svg version="1.1" width="32" height="32" xmlns="http://www.w3.org/2000/svg" shape-rendering="crispEdges">
<rect x="0" y="0" width="32" height="2" fill="#3211D4" />
<rect x="0" y="2" width="4" height="2" fill="#3211D4" />
<rect x="28" y="2" width="4" height="2" fill="#3211D4" />
<rect x="4" y="3" width="1" height="3" fill="#3211D4" />
<rect x="27" y="3" width="1" height="3" fill="#3211D4" />
<rect x="0" y="4" width="2" height="28" fill="#3211D4" />
<rect x="3" y="4" width="1" height="1" fill="#3211D4" />
<rect x="5" y="4" width="1" height="3" fill="#3211D4" />
<rect x="26" y="4" width="1" height="3" fill="#3211D4" />
<rect x="28" y="4" width="1" height="1" fill="#3211D4" />
<rect x="30" y="4" width="2" height="28" fill="#3211D4" />
<rect x="6" y="5" width="1" height="3" fill="#3211D4" />
<rect x="25" y="5" width="1" height="3" fill="#3211D4" />
<rect x="7" y="6" width="1" height="3" fill="#3211D4" />
<rect x="24" y="6" width="1" height="3" fill="#3211D4" />
<rect x="8" y="7" width="1" height="3" fill="#3211D4" />
<rect x="23" y="7" width="1" height="3" fill="#3211D4" />
<rect x="9" y="8" width="1" height="3" fill="#3211D4" />
<rect x="22" y="8" width="1" height="3" fill="#3211D4" />
<rect x="10" y="9" width="1" height="3" fill="#3211D4" />
<rect x="21" y="9" width="1" height="3" fill="#3211D4" />
<rect x="11" y="10" width="1" height="3" fill="#3211D4" />
<rect x="20" y="10" width="1" height="3" fill="#3211D4" />
<rect x="12" y="11" width="1" height="3" fill="#3211D4" />
<rect x="19" y="11" width="1" height="3" fill="#3211D4" />
<rect x="13" y="12" width="1" height="3" fill="#3211D4" />
<rect x="18" y="12" width="1" height="3" fill="#3211D4" />
<rect x="14" y="13" width="1" height="6" fill="#3211D4" />
<rect x="17" y="13" width="1" height="6" fill="#3211D4" />
<rect x="15" y="14" width="2" height="4" fill="#3211D4" />
<rect x="13" y="17" width="1" height="3" fill="#3211D4" />
<rect x="18" y="17" width="1" height="3" fill="#3211D4" />
<rect x="12" y="18" width="1" height="3" fill="#3211D4" />
<rect x="19" y="18" width="1" height="3" fill="#3211D4" />
<rect x="11" y="19" width="1" height="3" fill="#3211D4" />
<rect x="20" y="19" width="1" height="3" fill="#3211D4" />
<rect x="10" y="20" width="1" height="3" fill="#3211D4" />
<rect x="21" y="20" width="1" height="3" fill="#3211D4" />
<rect x="9" y="21" width="1" height="3" fill="#3211D4" />
<rect x="22" y="21" width="1" height="3" fill="#3211D4" />
<rect x="8" y="22" width="1" height="3" fill="#3211D4" />
<rect x="23" y="22" width="1" height="3" fill="#3211D4" />
<rect x="7" y="23" width="1" height="3" fill="#3211D4" />
<rect x="24" y="23" width="1" height="3" fill="#3211D4" />
<rect x="6" y="24" width="1" height="3" fill="#3211D4" />
<rect x="25" y="24" width="1" height="3" fill="#3211D4" />
<rect x="5" y="25" width="1" height="3" fill="#3211D4" />
<rect x="26" y="25" width="1" height="3" fill="#3211D4" />
<rect x="4" y="26" width="1" height="3" fill="#3211D4" />
<rect x="27" y="26" width="1" height="3" fill="#3211D4" />
<rect x="3" y="27" width="1" height="5" fill="#3211D4" />
<rect x="28" y="27" width="1" height="5" fill="#3211D4" />
<rect x="2" y="28" width="1" height="4" fill="#3211D4" />
<rect x="29" y="28" width="1" height="4" fill="#3211D4" />
<rect x="4" y="30" width="24" height="2" fill="#3211D4" />
</svg>